<svg width="136" height="145" viewBox="0 0 136 145" fill="none" xmlns="http://www.w3.org/2000/svg">
<g id="icon">
<g id="Clip path group">
<mask id="mask0_253_274" style="mask-type:luminance" maskUnits="userSpaceOnUse" x="28" y="34" width="118" height="118">
<g id="750f2e2667">
<path id="Vector" d="M28.5332 84.6868L78.4563 34.7637L145.018 101.325L95.0948 151.248L28.5332 84.6868Z" fill="white"/>
</g>
</mask>
<g mask="url(#mask0_253_274)">
<g id="Group">
<g id="Clip path group_2">
<mask id="mask1_253_274" style="mask-type:luminance" maskUnits="userSpaceOnUse" x="45" y="51" width="83" height="83">
<g id="90c369de6c">
<path id="Vector_2" d="M110.961 68.6568C113.129 70.8254 115.126 73.1343 116.944 75.5759C118.761 78.0174 120.368 80.5448 121.772 83.1657C123.169 85.7789 124.323 88.4311 125.244 91.13C126.172 93.8212 126.835 96.4968 127.241 99.1645C127.654 101.824 127.802 104.422 127.677 106.949C127.56 109.485 127.186 111.903 126.538 114.204C125.899 116.513 125.002 118.658 123.871 120.647C122.724 122.636 121.359 124.423 119.768 126.014C118.169 127.613 116.382 128.978 114.401 130.117C112.404 131.256 110.267 132.145 107.958 132.785C105.657 133.432 103.238 133.806 100.703 133.923C98.1759 134.048 95.5784 133.9 92.9106 133.494C90.2506 133.081 87.5751 132.418 84.8761 131.498C82.1771 130.577 79.5328 129.415 76.9118 128.026C74.2908 126.622 71.7635 125.015 69.3219 123.198C66.8804 121.38 64.5714 119.383 62.4029 117.215C60.2266 115.039 58.2296 112.73 56.4121 110.288C54.5946 107.846 52.9877 105.319 51.5836 102.698C50.1951 100.077 49.0329 97.4328 48.1124 94.7338C47.1919 92.0349 46.5289 89.3593 46.1155 86.6993C45.7099 84.0316 45.5616 81.434 45.6865 78.9067C45.8035 76.3715 46.1779 73.9534 46.8253 71.6522C47.465 69.3433 48.3542 67.2059 49.4931 65.209C50.632 63.2277 51.997 61.4414 53.5961 59.8423C55.1874 58.251 56.9738 56.8859 58.9629 55.7392C60.952 54.6081 63.0971 53.7111 65.4061 53.0714C67.7072 52.424 70.1254 52.0496 72.6605 51.9326C75.1879 51.8078 77.7855 51.956 80.4454 52.3694C83.1132 52.775 85.7888 53.4381 88.4799 54.3663C91.1789 55.2868 93.8311 56.4413 96.4442 57.8375C99.0652 59.2416 101.593 60.8485 104.034 62.6661C106.476 64.4836 108.785 66.4805 110.961 68.6568Z" fill="white"/>
</g>
</mask>
<g mask="url(#mask1_253_274)">
<g id="Group_2">
<path id="Vector_3" d="M29.3132 84.1252L95.4848 150.297L144.043 101.739L77.8713 35.5672L29.3132 84.1252Z" fill="url(#paint0_linear_253_274)"/>
</g>
</g>
</g>
</g>
</g>
</g>
<g id="Clip path group_3">
<mask id="mask2_253_274" style="mask-type:luminance" maskUnits="userSpaceOnUse" x="31" y="85" width="130" height="131">
<g id="35b1daa682">
<path id="Vector_4" d="M31.1934 143.261L89.1042 85.3499L160.993 157.239L103.083 215.15L31.1934 143.261Z" fill="white"/>
</g>
</mask>
<g mask="url(#mask2_253_274)">
<g id="Group_3">
<g id="Clip path group_4">
<mask id="mask3_253_274" style="mask-type:luminance" maskUnits="userSpaceOnUse" x="41" y="108" width="96" height="95">
<g id="797361a7b8">
<path id="Vector_5" d="M124.12 120.413C143.434 139.727 139.331 176.374 121.117 194.588C102.895 212.81 82.419 194.486 63.1128 175.18C43.8066 155.874 32.9795 142.894 51.2015 124.672C69.4156 106.458 104.814 101.107 124.12 120.413Z" fill="white"/>
</g>
</mask>
<g mask="url(#mask3_253_274)">
<g id="Group_4">
<path id="Vector_6" d="M31.9031 143.971L101.819 213.886L159.706 155.999L89.7905 86.0831L31.9031 143.971Z" fill="url(#paint1_linear_253_274)"/>
</g>
</g>
</g>
</g>
</g>
</g>
<g id="Clip path group_5">
<mask id="mask4_253_274" style="mask-type:luminance" maskUnits="userSpaceOnUse" x="65" y="23" width="154" height="155">
<g id="bfb920701f">
<path id="Vector_7" d="M65.1409 93.3376L135.033 23.4452L218.904 107.316L149.012 177.208L65.1409 93.3376Z" fill="white"/>
</g>
</mask>
<g mask="url(#mask4_253_274)">
<g id="Group_5">
<g id="Clip path group_6">
<mask id="mask5_253_274" style="mask-type:luminance" maskUnits="userSpaceOnUse" x="100" y="37" width="86" height="126">
<g id="d74f87eb10">
<path id="Vector_8" d="M109.432 127.878C97.6768 103.236 95.4224 56.7065 120.064 40.7077C150.548 26.9008 168.419 62.198 180.183 86.832C191.29 111.934 184.746 148.198 161.461 159.252C138.169 170.313 121.187 152.504 109.432 127.878Z" fill="white"/>
</g>
</mask>
<g mask="url(#mask5_253_274)">
<g id="Group_6">
<path id="Vector_9" d="M59.9927 92.1363L150.4 182.544L228.296 104.648L137.888 14.2406L59.9927 92.1363Z" fill="url(#paint2_linear_253_274)"/>
</g>
</g>
</g>
</g>
</g>
</g>
</g>
<defs>
<linearGradient id="paint0_linear_253_274" x1="53.5922" y1="59.8462" x2="119.764" y2="126.018" gradientUnits="userSpaceOnUse">
<stop stop-color="#63F09C"/>
<stop offset="1" stop-color="#12A966"/>
</linearGradient>
<linearGradient id="paint1_linear_253_274" x1="60.8468" y1="115.027" x2="130.763" y2="184.943" gradientUnits="userSpaceOnUse">
<stop stop-color="#66E0E7"/>
<stop offset="1" stop-color="#279EA5"/>
</linearGradient>
<linearGradient id="paint2_linear_253_274" x1="98.9405" y1="53.1885" x2="200.084" y2="154.332" gradientUnits="userSpaceOnUse">
<stop stop-color="#FBC53D"/>
<stop offset="1" stop-color="#ED8827"/>
</linearGradient>
</defs>
</svg>
