<svg width="248" height="224" viewBox="0 0 248 224" fill="none" xmlns="http://www.w3.org/2000/svg">
<mask id="mask0_57_109" style="mask-type:luminance" maskUnits="userSpaceOnUse" x="47" y="22" width="198" height="197">
<path d="M47.7004 106.802L131.842 22.6604L244.026 134.844L159.884 218.986L47.7004 106.802Z" fill="white"/>
</mask>
<g mask="url(#mask0_57_109)">
<mask id="mask1_57_109" style="mask-type:luminance" maskUnits="userSpaceOnUse" x="76" y="51" width="139" height="139">
<path d="M186.626 79.7844C190.281 83.4393 193.646 87.3308 196.709 91.4459C199.773 95.5609 202.481 99.8205 204.848 104.238C207.201 108.642 209.147 113.112 210.698 117.661C212.262 122.197 213.38 126.706 214.064 131.203C214.76 135.686 215.01 140.064 214.8 144.323C214.603 148.596 213.972 152.672 212.88 156.55C211.802 160.442 210.29 164.057 208.384 167.41C206.451 170.762 204.151 173.773 201.469 176.455C198.774 179.15 195.763 181.451 192.424 183.37C189.058 185.29 185.456 186.788 181.564 187.866C177.686 188.958 173.61 189.589 169.337 189.786C165.078 189.996 160.7 189.747 156.203 189.063C151.72 188.366 147.211 187.249 142.662 185.697C138.113 184.146 133.656 182.187 129.239 179.847C124.821 177.48 120.562 174.772 116.447 171.709C112.332 168.645 108.44 165.28 104.785 161.625C101.117 157.957 97.7515 154.065 94.6882 149.95C91.6249 145.835 88.9166 141.576 86.5502 137.158C84.21 132.741 82.2511 128.284 80.6997 123.735C79.1483 119.186 78.0308 114.677 77.3341 110.194C76.6504 105.697 76.4006 101.319 76.611 97.0597C76.8082 92.7869 77.4392 88.7113 78.5304 84.8329C79.6085 80.9413 81.1073 77.339 83.0267 73.9734C84.9462 70.634 87.2469 67.6234 89.9421 64.9282C92.6241 62.2462 95.6348 59.9455 98.9873 58.0128C102.34 56.1065 105.955 54.5946 109.847 53.5165C113.725 52.4253 117.801 51.7943 122.074 51.5971C126.333 51.3867 130.711 51.6365 135.194 52.3333C139.691 53.017 144.2 54.1345 148.736 55.699C153.285 57.2503 157.755 59.1961 162.159 61.5494C166.576 63.9159 170.836 66.6242 174.951 69.6874C179.066 72.7507 182.958 76.1164 186.626 79.7844Z" fill="white"/>
</mask>
<g mask="url(#mask1_57_109)">
<path d="M49.0153 105.855L160.542 217.382L242.382 135.541L130.856 24.0145L49.0153 105.855Z" fill="url(#paint0_linear_57_109)"/>
</g>
</g>
<mask id="mask2_57_109" style="mask-type:luminance" maskUnits="userSpaceOnUse" x="52" y="107" width="219" height="220">
<path d="M52.1836 205.523L149.787 107.919L270.951 229.083L173.347 326.686L52.1836 205.523Z" fill="white"/>
</mask>
<g mask="url(#mask2_57_109)">
<mask id="mask3_57_109" style="mask-type:luminance" maskUnits="userSpaceOnUse" x="70" y="146" width="161" height="159">
<path d="M208.805 167.015C241.357 199.567 234.441 261.332 203.743 292.031C173.031 322.742 138.52 291.86 105.981 259.321C73.4423 226.782 55.1942 204.905 85.9057 174.194C116.604 143.495 176.266 134.476 208.805 167.015Z" fill="white"/>
</mask>
<g mask="url(#mask3_57_109)">
<path d="M53.3799 206.719L171.217 324.557L268.782 226.992L150.944 109.155L53.3799 206.719Z" fill="url(#paint1_linear_57_109)"/>
</g>
</g>
<mask id="mask4_57_109" style="mask-type:luminance" maskUnits="userSpaceOnUse" x="109" y="3" width="260" height="260">
<path d="M109.4 121.382L227.197 3.584L368.555 144.941L250.757 262.739L109.4 121.382Z" fill="white"/>
</mask>
<g mask="url(#mask4_57_109)">
<mask id="mask5_57_109" style="mask-type:luminance" maskUnits="userSpaceOnUse" x="169" y="27" width="144" height="212">
<path d="M184.049 179.597C164.236 138.065 160.436 59.6431 201.968 32.6785C253.347 9.40818 283.467 68.8987 303.293 110.417C322.014 152.724 310.984 213.845 271.74 232.475C232.482 251.117 203.861 221.102 184.049 179.597Z" fill="white"/>
</mask>
<g mask="url(#mask5_57_109)">
<path d="M100.722 119.357L253.097 271.732L384.384 140.445L232.009 -11.9296L100.722 119.357Z" fill="url(#paint2_linear_57_109)"/>
</g>
</g>
<defs>
<linearGradient id="paint0_linear_57_109" x1="89.9355" y1="64.9348" x2="201.462" y2="176.461" gradientUnits="userSpaceOnUse">
<stop stop-color="#63F09C"/>
<stop offset="1" stop-color="#12A966"/>
</linearGradient>
<linearGradient id="paint1_linear_57_109" x1="102.162" y1="157.937" x2="219.999" y2="275.774" gradientUnits="userSpaceOnUse">
<stop stop-color="#66E0E7"/>
<stop offset="1" stop-color="#279EA5"/>
</linearGradient>
<linearGradient id="paint2_linear_57_109" x1="166.366" y1="53.7138" x2="336.835" y2="224.183" gradientUnits="userSpaceOnUse">
<stop stop-color="#FBC53D"/>
<stop offset="1" stop-color="#ED8827"/>
</linearGradient>
</defs>
</svg>
